<?xml version="1.0" encoding="utf-8"?>
<!-- Generator: Adobe Illustrator 25.4.1, SVG Export Plug-In . SVG Version: 6.00 Build 0)  -->
<svg version="1.1" id="Layer_1" xmlns="http://www.w3.org/2000/svg" xmlns:xlink="http://www.w3.org/1999/xlink" x="0px" y="0px"
	 viewBox="0 0 48 48" style="enable-background:new 0 0 48 48;" xml:space="preserve">
<style type="text/css">
	.st0{fill:#FF9800;}
	.st1{fill:#8A5100;}
	.st2{fill:#E91E63;}
</style>
<path class="st0" d="M39.8,44.4H8.6c-2.5,0-4.5-2-4.5-4.5V8.7c0-2.5,2-4.5,4.5-4.5h31.2c2.5,0,4.5,2,4.5,4.5v31.2
	C44.2,42.4,42.2,44.4,39.8,44.4z"/>
<path class="st1" d="M30.3,15.4H18c-0.9,0-1.7-0.8-1.7-1.7l0,0c0-0.9,0.8-1.7,1.7-1.7h12.3c0.9,0,1.7,0.8,1.7,1.7l0,0
	C32,14.6,31.2,15.4,30.3,15.4z"/>
<g>
	<polygon class="st2" points="15.9,30 27.9,20 27.9,40 	"/>
	<rect x="22.4" y="26.7" class="st2" width="25.6" height="6.7"/>
</g>
</svg>
