<?xml version="1.0" encoding="utf-8"?>
<!-- Generator: Adobe Illustrator 25.4.1, SVG Export Plug-In . SVG Version: 6.00 Build 0)  -->
<svg version="1.1" id="Layer_1" xmlns="http://www.w3.org/2000/svg" xmlns:xlink="http://www.w3.org/1999/xlink" x="0px" y="0px"
	 viewBox="0 0 48 48" style="enable-background:new 0 0 48 48;" xml:space="preserve">
<style type="text/css">
	.st0{fill:#FF9800;}
	.st1{fill:#8A5100;}
	.st2{fill:#43A047;}
</style>
<path class="st0" d="M40,44.6H8.9c-2.4,0-4.4-2-4.4-4.4V9c0-2.4,2-4.4,4.4-4.4H40c2.4,0,4.4,2,4.4,4.4v31.1
	C44.4,42.6,42.4,44.6,40,44.6z"/>
<path class="st1" d="M30.5,15.7H18.3c-0.9,0-1.7-0.8-1.7-1.7l0,0c0-0.9,0.8-1.7,1.7-1.7h12.2c0.9,0,1.7,0.8,1.7,1.7l0,0
	C32.2,14.9,31.4,15.7,30.5,15.7z"/>
<g>
	<polygon class="st2" points="48.1,30.4 36.3,40.4 36.3,20.4 	"/>
	<rect x="16.2" y="27.1" class="st2" width="25.6" height="6.7"/>
</g>
</svg>
