<?xml version="1.0" encoding="utf-8"?>
<!-- Generator: Adobe Illustrator 25.4.1, SVG Export Plug-In . SVG Version: 6.00 Build 0)  -->
<svg version="1.1" id="Layer_1" xmlns="http://www.w3.org/2000/svg" xmlns:xlink="http://www.w3.org/1999/xlink" x="0px" y="0px"
	 viewBox="0 0 48 48" style="enable-background:new 0 0 48 48;" xml:space="preserve">
<style type="text/css">
	.st0{fill:#D1C4E9;}
	.st1{fill:#009688;}
</style>
<g>
	<path class="st0" d="M36.6,0H4.8C3.6,0,2.6,1.1,2.6,2.3v7c0,1.3,1,2.3,2.3,2.3h31.8c1.2,0,2.3-1.1,2.3-2.3v-7
		C38.9,1.1,37.9,0,36.6,0z"/>
	<path class="st0" d="M36.6,14.1H4.8c-1.2,0-2.3,1.1-2.3,2.3v7c0,1.3,1,2.3,2.3,2.3h28.5c1.5-1.5,5.6-1.1,5.6-2.3v-7
		C38.9,15.1,37.9,14.1,36.6,14.1z"/>
	<path class="st0" d="M32.5,28.1H4.8c-1.2,0-2.3,1.1-2.3,2.3v7c0,1.3,1,2.3,2.3,2.3h31.8c1.2,0,2.3-1.1,2.3-2.3v-2.8
		C38.9,31.1,36.1,28.1,32.5,28.1z"/>
</g>
<path class="st1" d="M45.7,21.1H29.8c-1.2,0-2.3,1.1-2.3,2.3v13.8c0,1.5,0.7,2.8,1.8,3.8l8.4,6.5l8.4-6.5c1.1-0.9,1.8-2.2,1.8-3.8
	V23.5C48,22.2,47,21.1,45.7,21.1z"/>
</svg>
