<?xml version="1.0" encoding="utf-8"?>
<!-- Generator: Adobe Illustrator 25.4.1, SVG Export Plug-In . SVG Version: 6.00 Build 0)  -->
<svg version="1.1" id="Layer_1" xmlns="http://www.w3.org/2000/svg" xmlns:xlink="http://www.w3.org/1999/xlink" x="0px" y="0px"
	 viewBox="0 0 230 230" style="enable-background:new 0 0 230 230;" xml:space="preserve">
<style type="text/css">
	.st0{fill:#FFFFFF;stroke:#28699A;stroke-width:0.25;stroke-miterlimit:1;}
	.st1{fill:#3769A5;stroke:#28699A;stroke-width:0.25;stroke-miterlimit:1;}
	.st2{fill:#4E9BD4;stroke:#28699A;stroke-width:0.25;stroke-miterlimit:1;}
	.st3{fill:#E78636;stroke:#28699A;stroke-width:0.25;stroke-miterlimit:1;}
	.st4{fill:#FFE4B8;stroke:#28699A;stroke-width:0.25;stroke-miterlimit:1;}
	.st5{fill:#E7D0A9;stroke:#28699A;stroke-width:0.25;stroke-miterlimit:1;}
	.st6{fill:#28699A;stroke:#28699A;stroke-width:0.25;stroke-miterlimit:1;}
	.st7{fill:#FBD20A;stroke:#28699A;stroke-width:0.25;stroke-miterlimit:1;}
	.st8{fill:#F16723;stroke:#28699A;stroke-width:0.25;stroke-miterlimit:1;}
</style>
<g id="SVGRepo_bgCarrier">
</g>
<g id="SVGRepo_tracerCarrier">
</g>
<g id="SVGRepo_iconCarrier">
	<path class="st0" d="M24.9,208.1C23.8,208.3,24.8,209.2,24.9,208.1z M84.7,184.9l80.2-89.1c12.9-14.3,11.7-36.5-2.6-49.4
		c-14.3-12.9-36.5-11.7-49.4,2.6l-80.7,89.7l0.2,0.2c-0.6,0.1-1.2,0.7-1.2,1.5l-6.2,67.8l16.9-6.9L84.7,184.9z"/>
	<path class="st1" d="M94.6,194.9l-52-46.8l80.7-89.7c12.9-14.3,35-15.5,49.4-2.6c14.3,12.9,15.5,35,2.6,49.4L94.6,194.9L94.6,194.9
		L94.6,194.9z"/>
	<path class="st2" d="M167.2,49c-14.8-9.8-34.5-8.1-46.2,4.9l-80.7,89.7l46.1,41.5l80.7-89.7C178.9,82.5,178.6,62.7,167.2,49z"/>
	<path class="st3" d="M157.2,106.5l9.9-11c11.7-13,11.4-32.8,0-46.5c-14.8-9.8-34.5-8.1-46.2,4.9l-9.9,11L157.2,106.5z"/>
	<path class="st4" d="M94.1,193.3l-54.5-49l-8,47.6l-5.2,17.6c-0.1,1.1-1.1,0.2,0,0l66.8-13.2C94.7,196,95.2,194.3,94.1,193.3
		L94.1,193.3z"/>
	<path class="st3" d="M26.4,187.2l-1.9,20.5c-0.1,0.9,0.6,1.8,1.5,1.8c0.2,0,0.3,0,0.5,0l20.2-4L26.4,187.2z"/>
	<path class="st5" d="M85.8,185.9l-42,17.1l4,3.6l42.9-9.7l3.2-3.6L85.8,185.9z"/>
	<path class="st6" d="M90.5,73.9c-1.3-1.2-3.3-1.1-4.5,0.2l-8.2,9.1c-1.2,1.3-1.1,3.3,0.2,4.5c1.3,1.2,3.3,1.1,4.5-0.2l8.2-9.1
		C91.9,77.1,91.8,75.1,90.5,73.9z"/>
	<path class="st6" d="M91,73.2c1.3,1.2,3.3,1.1,4.5-0.2l8.5-9.5l53.1,47.8c1.3,1.2,3.3,1.1,4.5-0.2s1.1-3.3-0.2-4.5l-53.1-47.8
		l3.5-3.9c14.3-15.8,38.8-17.1,54.6-2.9s17.1,38.8,2.9,54.6l-51.2,56.9c-1.2,1.3-1.1,3.3,0.2,4.5c1.3,1.2,3.3,1.1,4.5-0.2l51.2-56.9
		c16.6-18.5,15.1-47.1-3.3-63.7s-47.1-15.1-63.7,3.3L90.8,68.7C89.6,70,89.7,72.1,91,73.2z M117.7,168.8c-1.3-1.2-3.3-1.1-4.5,0.2
		l-17.8,19.8l-53-47.7c-1.3-1.2-3.3-1.1-4.5,0.2c-1.2,1.3-1.1,3.3,0.2,4.5l52.7,47.4c-1.5,1-3.2,1.8-5,2.1l-57.2,11.6
		c-0.7,0.1-1.3-0.2-1.5-0.4c-0.2-0.2-0.6-0.6-0.5-1.3l5.6-58.1c0.3-3,1.5-5.7,3.5-7.9l41.9-46.6c1.2-1.3,1.1-3.3-0.2-4.5
		c-1.3-1.2-3.3-1.1-4.5,0.2L31,135.1c-2.9,3.2-4.6,7.1-5.1,11.5l-5.6,58.1c-0.3,2.5,0.7,5,2.6,6.7l0,0c1.9,1.7,4.4,2.4,7,1.9
		l57.2-11.6c4.3-0.9,8-3.1,10.9-6.3l20-22.2C119.1,172.1,119.1,170.1,117.7,168.8C117.8,168.9,117.8,168.9,117.7,168.8L117.7,168.8z
		"/>
	<path class="st0" d="M150,52.3c-6.1-5.5-15.6-5-21.1,1.1c-0.7,0.8-0.6,2,0.1,2.6c0.8,0.7,2,0.6,2.6-0.1c4.1-4.6,11.3-5,15.9-0.8
		c0.8,0.7,2,0.6,2.6-0.1S150.8,53,150,52.3z M126.9,58.4c-0.8-0.7-2-0.6-2.6,0.1l-2,2.2c-0.7,0.8-0.6,2,0.1,2.6
		c0.8,0.7,2,0.6,2.6-0.1l2-2.2C127.7,60.3,127.6,59.1,126.9,58.4z M66.5,125.5c-0.8-0.7-2-0.6-2.6,0.1l-11.7,13
		c-0.7,0.8-0.6,2,0.1,2.6c0.8,0.7,2,0.6,2.6-0.1l11.7-13C67.3,127.4,67.2,126.2,66.5,125.5z"/>
	<path class="st7" d="M209.8,96.5l-1.4-1.2l1.2-1.4c0.7-0.8,0.6-2-0.1-2.6c-0.8-0.7-2-0.6-2.6,0.1l-1.2,1.4l-1.4-1.2
		c-0.8-0.7-2-0.6-2.6,0.1s-0.6,2,0.1,2.6l1.4,1.2l-1.2,1.4c-0.7,0.8-0.6,2,0.1,2.6s2,0.6,2.6-0.1l1.2-1.4l1.4,1.2
		c0.8,0.7,2,0.6,2.6-0.1C210.6,98.4,210.6,97.2,209.8,96.5z"/>
	<path class="st8" d="M21,131.1l-1.4-1.2l1.2-1.4c0.7-0.8,0.6-2-0.1-2.6c-0.8-0.7-2-0.6-2.6,0.1l-1.2,1.4l-1.4-1.2
		c-0.8-0.7-2-0.6-2.6,0.1c-0.7,0.8-0.6,2,0.1,2.6l1.4,1.2l-1.2,1.4c-0.7,0.8-0.6,2,0.1,2.6s2,0.6,2.6-0.1l1.2-1.4l1.4,1.2
		c0.8,0.7,2,0.6,2.6-0.1C21.8,133,21.7,131.8,21,131.1z"/>
	<path class="st2" d="M76.8,220.7l-1.4-1.2l1.2-1.4c0.7-0.8,0.6-2-0.1-2.6c-0.8-0.7-2-0.6-2.6,0.1l-1.2,1.4l-1.4-1.2
		c-0.8-0.7-2-0.6-2.6,0.1c-0.7,0.8-0.6,2,0.1,2.6l1.4,1.2l-1.2,1.4c-0.7,0.8-0.6,2,0.1,2.6c0.8,0.7,2,0.6,2.6-0.1l1.2-1.4l1.4,1.2
		c0.8,0.7,2,0.6,2.6-0.1C77.6,222.5,77.5,221.3,76.8,220.7z"/>
	<path class="st8" d="M152.5,162.8c-2.3-2-2.4-5.5-0.4-7.8c2-2.3,5.5-2.4,7.8-0.4c2.3,2,2.4,5.5,0.4,7.8
		C158.2,164.7,154.7,164.8,152.5,162.8z M157.3,157.4c-0.7-0.6-1.8-0.6-2.5,0.1c-0.6,0.7-0.6,1.8,0.1,2.5s1.8,0.6,2.5-0.1
		C158.1,159.2,158,158.1,157.3,157.4z"/>
	<path class="st6" d="M142.9,168.1c-0.4,0.5-0.4,1.2,0.1,1.6c0.5,0.4,1.2,0.4,1.6-0.1s0.4-1.2-0.1-1.6
		C144,167.6,143.3,167.6,142.9,168.1z"/>
	<path class="st6" d="M215.7,104.3c-0.4,0.5-0.4,1.2,0.1,1.6s1.2,0.4,1.6-0.1l0,0c0.4-0.5,0.4-1.2-0.1-1.6S216.1,103.8,215.7,104.3z
		"/>
	<path class="st6" d="M145.2,21c-0.4,0.5-0.4,1.2,0.1,1.6c0.5,0.4,1.2,0.4,1.6-0.1c0,0,0,0,0,0c0.4-0.5,0.4-1.2-0.1-1.6
		C146.4,20.6,145.7,20.6,145.2,21C145.2,21,145.2,21,145.2,21z"/>
	<path class="st6" d="M6.9,149.2c-0.4,0.5-0.4,1.2,0.1,1.6c0.5,0.4,1.2,0.4,1.6-0.1c0,0,0,0,0,0c0.4-0.5,0.4-1.2-0.1-1.6
		C8,148.7,7.3,148.7,6.9,149.2C6.9,149.2,6.9,149.2,6.9,149.2z"/>
	<path class="st6" d="M12.3,186.2c-0.4,0.5-0.4,1.2,0.1,1.6c0.5,0.4,1.2,0.4,1.6-0.1c0,0,0,0,0,0c0.4-0.5,0.4-1.2-0.1-1.6
		C13.5,185.7,12.8,185.7,12.3,186.2C12.3,186.2,12.3,186.2,12.3,186.2z"/>
	<path class="st6" d="M138,16.7c-0.6,0.7-0.6,1.7,0.1,2.3c0.7,0.6,1.7,0.6,2.3-0.1c0,0,0,0,0,0c0.6-0.7,0.6-1.7-0.1-2.3
		C139.6,16,138.6,16.1,138,16.7C138,16.7,138,16.7,138,16.7z"/>
	<path class="st7" d="M109.6,27.2c-2.6-2.4-2.8-6.3-0.5-9s6.3-2.8,9-0.5s2.8,6.3,0.5,9C116.2,29.3,112.2,29.5,109.6,27.2
		C109.6,27.2,109.6,27.2,109.6,27.2z M115.6,20.5c-1.1-1-2.7-0.9-3.7,0.2c-1,1.1-0.9,2.7,0.2,3.7c1.1,1,2.7,0.9,3.7-0.2
		C116.7,23.1,116.7,21.5,115.6,20.5z"/>
	<path class="st2" d="M61.1,74.3c-1.8-1.6-2-4.5-0.3-6.3c1.6-1.8,4.5-2,6.3-0.3c1.8,1.6,2,4.5,0.3,6.3C65.8,75.8,62.9,76,61.1,74.3z
		 M64.6,70.4c-0.3-0.3-0.8-0.3-1.1,0.1c-0.3,0.3-0.3,0.8,0.1,1.1s0.8,0.3,1.1-0.1C65,71.2,64.9,70.7,64.6,70.4z"/>
</g>
</svg>
