<?xml version="1.0" encoding="utf-8"?>
<!-- Generator: Adobe Illustrator 25.4.1, SVG Export Plug-In . SVG Version: 6.00 Build 0)  -->
<svg version="1.1" id="Layer_1" xmlns="http://www.w3.org/2000/svg" xmlns:xlink="http://www.w3.org/1999/xlink" x="0px" y="0px"
	 viewBox="0 0 40 42.2" style="enable-background:new 0 0 40 42.2;" xml:space="preserve">
<style type="text/css">
	.st0{fill:#90CAF9;}
	.st1{fill:#E1F5FE;}
	.st2{fill:#616161;}
	.st3{fill:#37474F;}
	.st4{fill:#1976D2;}
</style>
<polygon class="st0" points="28,38.1 0,38.1 0,0.1 19,0.1 28,9.1 "/>
<polygon class="st1" points="26.5,10.1 18,10.1 18,1.6 "/>
<rect x="33.3" y="30.9" transform="matrix(0.7071 -0.7071 0.7071 0.7071 -15.9491 35.383)" class="st2" width="2.8" height="12"/>
<circle class="st2" cx="23" cy="25.1" r="11"/>
<circle class="st0" cx="23" cy="25.1" r="9"/>
<rect x="34.5" y="33.7" transform="matrix(0.7071 -0.7071 0.7071 0.7071 -16.4052 36.5473)" class="st3" width="2.8" height="8.7"/>
<g>
	<path class="st4" d="M25,27.1h-9.7c0.4,1.6,1.3,3,2.5,4H25V27.1z"/>
	<path class="st4" d="M15.3,23.1H25v-4h-7.3C16.5,20.1,15.7,21.5,15.3,23.1z"/>
	<path class="st4" d="M15.1,16.1H6v2h7.3C13.8,17.4,14.4,16.7,15.1,16.1z"/>
	<path class="st4" d="M12.1,20.1H6v2h5.4C11.6,21.4,11.8,20.7,12.1,20.1z"/>
	<path class="st4" d="M11,25.1c0-0.3,0-0.7,0.1-1H6v2h5.1C11,25.8,11,25.4,11,25.1z"/>
	<path class="st4" d="M11.4,28.1H6v2h6.1C11.8,29.5,11.6,28.8,11.4,28.1z"/>
</g>
</svg>
