<?xml version="1.0" encoding="utf-8"?>
<!-- Generator: Adobe Illustrator 25.4.1, SVG Export Plug-In . SVG Version: 6.00 Build 0)  -->
<svg version="1.1" id="Layer_1" xmlns="http://www.w3.org/2000/svg" xmlns:xlink="http://www.w3.org/1999/xlink" x="0px" y="0px"
	 viewBox="0 0 52.7 65" style="enable-background:new 0 0 52.7 65;" xml:space="preserve">
<style type="text/css">
	.st0{fill-rule:evenodd;clip-rule:evenodd;fill:#673AB7;}
	.st1{fill-rule:evenodd;clip-rule:evenodd;fill:#B39DDB;}
	.st2{fill-rule:evenodd;clip-rule:evenodd;fill:#FFFFFF;}
	.st3{fill-rule:evenodd;clip-rule:evenodd;}
</style>
<symbol  id="C" viewBox="-25 -32 50 64">
	<path class="st0" d="M25-12L5-32h-25c-2.8,0-5,2.2-5,5c0,0,0,0,0,0v54c0,2.8,2.2,5,5,5c0,0,0,0,0,0h40c2.8,0,5-2.2,5-5c0,0,0,0,0,0
		V-12z"/>
	<g transform="matrix(-1 0 0 -1 50 20)">
		<path class="st1" d="M45,52L25,32h15c2.8,0,5,2.2,5,5c0,0,0,0,0,0V52z"/>
	</g>
	<g>
		<path class="st2" d="M-10-6H9.7c1.7,0,3,1.3,3,3v1c0,1.7-1.3,3-3,3H-10c-1.7,0-3-1.3-3-3v-1C-13-4.7-11.7-6-10-6z"/>
		<path class="st2" d="M-10,2H9.7c1.7,0,3,1.3,3,3v1c0,1.7-1.3,3-3,3H-10c-1.7,0-3-1.3-3-3V5C-13,3.3-11.7,2-10,2z"/>
		<path class="st2" d="M-10,10H9.7c1.7,0,3,1.3,3,3v1c0,1.7-1.3,3-3,3H-10c-1.7,0-3-1.3-3-3v-1C-13,11.3-11.7,10-10,10z"/>
		<path class="st3" d="M-7.9-6h2.3v23h-2.3V-6z"/>
	</g>
</symbol>
<use xlink:href="#C"  width="50" height="64" x="-25" y="-32" transform="matrix(1.0533 0 0 1.0156 26.3333 32.5)" style="overflow:visible;"/>
</svg>
